<?xml version="1.0" encoding="UTF-8"?>
<svg width="134px" height="181px" viewBox="0 0 134 181" version="1.1" xmlns="http://www.w3.org/2000/svg" xmlns:xlink="http://www.w3.org/1999/xlink">
    <!-- Generator: Sketch 51.2 (57519) - http://www.bohemiancoding.com/sketch -->
    <title>aesk-logo</title>
    <desc>Created with Sketch.</desc>
    <defs></defs>
    <g id="Page-1" stroke="none" stroke-width="1" fill="none" fill-rule="evenodd">
        <g id="ANADOLU-EFES-Logo-Pantone-Keyline">
            <path d="M134,113.962985 L134,13.6513417 C113.426569,4.86872234 90.7814369,0 67,0 C43.2179722,0 20.5740215,4.86872234 0,13.6513417 L0,113.962985 C0,150.985967 29.9971337,181 67,181 C104.002275,181 134,150.985967 134,113.962985" id="Fill-1" fill="#00A4D2"></path>
            <path d="M127,114.520237 L127,18.4645265 C108.425618,11.0650945 88.1831803,7 67,7 C45.8156438,7 25.5743824,11.0650945 7,18.4645265 L7,114.520237 C7,147.922287 33.8629161,175 67,175 C100.137084,175 127,147.922287 127,114.520237" id="Fill-3" fill="#213557"></path>
            <path d="M113.999999,118.103766 L113.999999,99.4471277 C112.39346,98.9163657 111.068791,99.8919963 111.06583,101.584985 C111.056356,106.930516 111.074713,112.274862 111.06583,117.620393 C109.590159,117.386408 108.131661,117.16427 106.650661,116.954571 C106.673163,110.392908 106.628159,103.831245 106.650661,97.269582 C105.670038,97.0053858 104.679349,96.7494827 103.694582,96.5042422 C103.666158,103.186156 103.723005,109.868662 103.694582,116.549391 C103.686291,118.326496 104.967733,119.910489 106.605656,120.103601 C108.088433,120.284273 109.568841,120.473831 111.046881,120.674644 C112.680067,120.887896 114.001184,119.745218 113.999999,118.103766 M100.69409,112.100706 C98.9608284,111.855465 97.2630962,111.629181 95.5239127,111.422444 C95.5464149,106.964873 95.5014105,102.508487 95.5239127,98.0509157 C95.532203,96.2098352 94.1986513,94.4540557 92.5477,94.1691266 C92.5192762,99.8072876 92.5761239,105.447226 92.5477,111.085387 C92.5376333,112.958455 93.8261806,114.596353 95.4729866,114.764586 C97.211578,114.947035 98.959644,115.146071 100.69409,115.361101 C100.69942,114.274105 100.688761,113.187702 100.69409,112.100706 M99.920725,119.361364 C96.5720417,119.025491 93.215068,118.739969 89.8533571,118.507761 C88.2024059,118.389287 86.8433911,119.853622 86.8351009,121.76164 C86.8274027,123.484839 86.842799,125.208631 86.8351009,126.932422 C86.8268106,128.839848 88.1467425,130.41614 89.7947329,130.460567 C92.4073573,130.536391 95.006362,130.625246 97.6160255,130.727133 C97.6077353,132.381618 97.6243158,134.036102 97.6160255,135.689994 C94.0115277,135.634904 90.3928178,135.588699 86.784767,135.55138 C86.7800297,136.701167 86.7747002,137.850361 86.7699629,138.999556 L97.5864174,138.999556 C99.2344078,138.994817 100.58987,137.535221 100.59816,135.739161 C100.605858,134.108963 100.58987,132.478766 100.59816,130.848569 C100.60645,129.0531 99.2912555,127.512943 97.6456337,127.417572 C95.0371545,127.274811 92.4381498,127.151006 89.8243411,127.045564 C89.8320392,125.338359 89.8154587,123.629969 89.8243411,121.922171 C92.1888491,122.059601 94.5652003,122.217171 96.9243788,122.396658 C98.5711849,122.516317 99.9112504,121.16394 99.920725,119.361364 M88.0407453,110.651773 C88.061471,106.069805 88.0194274,101.487836 88.0407453,96.9070526 C88.0496277,95.0132513 86.755751,93.281759 85.0959173,93.0809461 C83.8440841,92.9304846 82.5904745,92.7954246 81.3362726,92.676951 C79.672886,92.5176039 78.2978828,93.994378 78.2925534,95.9367535 C78.2795258,100.623571 78.305581,105.310981 78.2925534,109.997799 C78.2872239,111.941951 79.6065637,113.568594 81.2628444,113.652711 C82.5117167,113.718464 83.7617734,113.791917 85.0100536,113.873664 C86.6639657,113.979106 88.0318628,112.545574 88.0407453,110.651773 M85.0627562,96.545708 C85.0432148,101.16618 85.0822975,105.787245 85.0627562,110.40831 C83.8132916,110.315308 82.5502074,110.230599 81.2995585,110.156553 C81.3161391,105.4958 81.2841623,100.834454 81.2995585,96.1731084 C82.5537603,96.2826965 83.8115151,96.4070938 85.0627562,96.545708 M73.7737554,109.829566 C73.7820457,105.115499 73.7660572,100.401433 73.7737554,95.6873664 C73.7779005,93.7361054 72.4443488,92.0887293 70.776817,92.0472635 C68.5112003,91.9903962 66.2443993,91.9850649 63.9781904,92.0300848 C63.9847042,99.1195481 63.9894415,106.209604 63.9959553,113.299067 C66.2485444,113.27478 68.5023178,113.277742 70.7560913,113.307952 C72.4135563,113.329278 73.7696102,111.782012 73.7737554,109.829566 M70.7685267,95.590218 C70.7631973,100.31554 70.773264,105.039676 70.7685267,109.764998 C69.5155092,109.74545 68.2530171,109.735379 66.9999996,109.735379 L66.9999996,95.5475675 C68.2583466,95.5475675 69.5113641,95.561192 70.7685267,95.590218 M56.4648227,113.483293 C57.4655786,113.445974 58.4722562,113.412209 59.47242,113.38496 C59.4611689,107.497412 59.4836711,101.608679 59.47242,95.720539 C59.4694592,93.7680933 58.0974168,92.2492611 56.4316615,92.3677347 C55.175091,92.4548129 53.9191127,92.557885 52.6637266,92.676951 C51.0003399,92.8368904 49.6963964,94.549427 49.7040945,96.4651459 C49.727781,102.251399 49.6810001,108.038837 49.7040945,113.82509 C51.3591909,113.723203 52.7069545,112.091228 52.7004407,110.157146 C52.6945191,108.409659 52.7063623,106.661581 52.7004407,104.91291 C53.9522739,104.825831 55.2118052,104.750008 56.4648227,104.686032 C56.4725208,107.618848 56.4571245,110.550478 56.4648227,113.483293 M56.4648227,101.165588 C55.2106208,101.236672 53.9534582,101.320196 52.7004407,101.416752 C52.6945191,99.6692658 52.7063623,97.9211871 52.7004407,96.1737008 C53.9540504,96.0629279 55.2088444,95.968149 56.4648227,95.8864021 C56.46956,97.6469206 56.4606775,99.4062543 56.4648227,101.165588 M37.9058333,138.999556 L48.7228799,138.999556 C48.7175505,137.84503 48.7134053,136.691689 48.7074837,135.537756 C45.100025,135.570928 41.4594051,135.614764 37.8543151,135.667484 C37.8454326,134.002337 37.8626054,132.335413 37.8543151,130.670266 C40.9613958,130.555346 44.0797277,130.458198 47.1921379,130.380598 C47.1862162,129.230811 47.1820711,128.082209 47.1761494,126.932422 C44.0631471,127.04201 40.9613958,127.17707 37.8543151,127.338787 C37.8460248,125.672455 37.8626054,124.006715 37.8543151,122.340383 C40.4633865,122.147271 43.0422576,121.980816 45.658435,121.83924 C47.3093862,121.752754 48.6417536,120.141512 48.6340554,118.226386 C45.0171221,118.428384 41.4061104,118.688433 37.803389,119.008904 C36.156583,119.159958 34.8319137,120.763499 34.8396118,122.573184 C34.8615219,126.953155 34.8834319,131.333718 34.9053419,135.714281 C34.9136322,137.523966 36.2572507,138.994817 37.9058333,138.999556 M45.2001006,114.145561 C45.1681238,107.289491 45.2320774,100.434013 45.2001006,93.5779431 C43.544412,93.8214064 42.187766,95.5665233 42.1978327,97.4360375 C42.213229,100.591583 42.1824365,103.745944 42.1978327,106.900897 C40.6824869,102.791046 39.1908276,98.7688661 37.6808112,94.8533119 C36.0345973,95.1814839 34.7543403,96.9455566 34.7632228,98.7540568 C34.7904623,104.229317 34.7359832,109.705169 34.7632228,115.180428 C36.4064759,114.990278 37.7506865,113.357119 37.7418041,111.512484 C37.7252235,108.414991 37.7577925,105.316312 37.7418041,102.218819 C39.2524126,106.182947 40.7440719,110.250147 42.2588256,114.400279 C43.1298978,114.321494 45.0757463,114.155631 45.2001006,114.145561 M27.3594053,120.103009 C28.3477258,119.983943 29.3301247,119.867838 30.3202217,119.756473 C30.2917978,113.075152 30.3480533,106.393238 30.3202217,99.7113239 C30.3119314,97.9348116 28.9398891,96.8241211 27.3155852,97.269582 C25.8440594,97.6676535 24.3778631,98.0876426 22.9169963,98.530734 C21.3027592,99.0265462 20.0011843,100.790619 20,102.431479 L20,121.088709 C21.6302255,120.85887 22.9371299,119.313974 22.9335769,117.620393 C22.9288396,114.820269 22.9383142,112.020144 22.9335769,109.221204 C24.4033262,108.894809 25.8831422,108.586185 27.3594053,108.292963 C27.3736172,112.22925 27.3451933,116.166129 27.3594053,120.103009 M27.3594053,105.143341 C25.8843265,105.466181 24.4009575,105.806793 22.9335769,106.166953 C22.9312082,104.639828 22.9365377,103.11211 22.9335769,101.584985 C24.3974045,101.175658 25.8866952,100.787065 27.3594053,100.419204 C27.3647347,101.994311 27.3540758,103.569418 27.3594053,105.143341 M52.7572884,121.519361 C52.7768298,127.346488 52.7359705,133.172429 52.7572884,138.999556 L55.7820584,138.999556 C55.7737681,136.069702 55.7903487,133.141034 55.7820584,130.21118 C58.6475365,130.170307 61.5165676,130.145427 64.3826379,130.13595 C64.3814536,128.954175 64.3814536,127.771808 64.3808614,126.590033 C61.510646,126.60425 58.6499052,126.638607 55.7820584,126.69666 C55.7767289,124.937918 55.7867957,123.180362 55.7820584,121.423397 C58.1536723,121.355275 60.5045606,121.309663 62.8773588,121.284783 C64.5330474,121.268197 65.8748894,119.677688 65.8748894,117.718726 C62.4983743,117.729389 59.1230436,117.793365 55.7494894,117.907099 C54.0932087,117.966336 52.7495902,119.591202 52.7572884,121.519361 M68.8712356,121.268789 C68.8688669,125.99648 68.8741964,130.725356 68.8712356,135.453047 C68.8700512,137.412601 70.2018265,139.000148 71.8492247,138.999556 C75.4549069,139.000148 79.0605891,139.000148 82.6668635,138.999556 C82.6710087,137.838514 82.675746,136.67688 82.679299,135.515246 C79.0718402,135.486812 75.4631972,135.467264 71.8533699,135.458971 C71.8557385,133.68779 71.8586993,131.916609 71.861068,130.14602 C74.976439,130.165568 78.0965473,130.20348 81.2113262,130.259755 C81.2154713,129.094566 81.2065889,127.928193 81.2113262,126.763005 C78.0947708,126.684812 74.9829528,126.632091 71.8652131,126.605435 C71.8675818,124.834846 71.8699504,123.064257 71.8717269,121.294261 C74.4950102,121.325657 77.1177014,121.384301 79.7386161,121.46901 C81.391936,121.519361 82.7379231,120.013561 82.7462134,118.091326 C79.1257271,117.918947 75.5016878,117.805804 71.8764642,117.752491 C70.2189992,117.727612 68.8718277,119.309235 68.8712356,121.268789" id="Fill-5" fill="#FFFFFE"></path>
            <path d="M52.2807705,43.0745149 C52.2861543,43.0357672 52.2556462,43.0005961 52.2161652,43 L28.0663471,43 C28.00234,43 27.9754212,43.0816684 28.0274643,43.1186278 L52.0833654,60.601023 C52.1060969,60.6177144 52.1156681,60.6469242 52.1072933,60.6743457 L42.9578675,88.9137166 C42.938127,88.9745208 43.0081161,89.0245948 43.0595611,88.9870393 L63.9725342,73.7836087 C64.0078279,73.7579756 64.0096225,73.7061132 63.974927,73.6792878 C62.910136,72.8411438 49.7372361,62.0066727 52.2807705,43.0745149" id="Fill-7" fill="#00A4D2"></path>
            <path d="M87.669712,77.3661708 C84.7368481,75.1189461 74.6284394,67.367443 70.5025461,64.0896476 C64.5817186,59.384817 58.2877698,52.4126126 57.2594408,39.0620115 C57.2534517,38.9897116 57.1528348,38.9760812 57.1324718,39.0454181 C56.510204,41.1367831 53.4934926,52.9518991 60.9121949,64.1714295 C63.068871,67.4332241 66.435346,71.2692699 70.7031811,74.2874966 C80.4642217,81.1909568 90.5247176,88.0535261 91.8962222,88.9880919 C91.9483274,89.0236493 92.0154054,88.973869 91.9968392,88.9140141 L88.79207,78.9561772 C88.5890394,78.3250341 88.1991487,77.7715247 87.669712,77.3661708" id="Fill-9" fill="#FFFFFE"></path>
            <path d="M105.936322,43 L81.0632356,43 C81.0202096,43 80.9905566,43.044282 81.0027666,43.0873166 L85.4361869,58.9508748 C85.4489784,58.9964042 85.499563,59.0144912 85.5350303,58.9870488 L105.973534,43.1241143 C106.023537,43.0848219 105.997954,43 105.936322,43" id="Fill-11" fill="#00A4D2"></path>
            <path d="M70.3602272,58.4740637 C70.0172168,57.1510873 68.0628019,49.2020674 68.4962892,41.1725644 C68.5002976,41.1014809 68.6016546,41.0932563 68.6205517,41.16199 C71.4488128,51.4338556 74.0359932,59.1813743 74.8857886,61.5265437 C75.0965195,62.1057865 75.4641534,62.6063086 75.9491781,62.9728882 L83.9008351,68.9873784 C83.9489367,69.0238013 84.0147901,68.975629 83.9970383,68.9162948 L76.037937,42.9384911 C71.2146037,25.9471746 72.1583118,16.5753088 72.3593079,15.0725675 C72.3673248,15.0097085 72.2883007,14.9744604 72.248216,15.0220453 C67.6653908,20.3950212 66.1141134,29.8244587 65.8804769,31.4082705 C65.8713147,31.471717 65.7808378,31.4793541 65.7613681,31.4182575 C65.0512965,29.1623831 64.778148,27.0762867 64.5622633,24.771065 C64.5565369,24.7087935 64.4723591,24.7017439 64.4454451,24.7587282 C63.0195754,27.8000464 60.9231462,34.6933876 61.0021703,39.761468 C61.1836967,51.4326807 69.1313452,57.561727 70.262306,58.5410349 C70.3092624,58.5815702 70.3756884,58.5345728 70.3602272,58.4740637" id="Fill-13" fill="#D73430"></path>
            <path d="M53.8761946,149.372407 C53.9139664,149.549132 53.9901001,149.765605 53.9901001,150.059739 C53.9901001,150.334917 52.6250048,159.368691 52.6250048,159.368691 C52.4166698,160.703608 52.2083349,160.998965 52,161.27292 L53.5728401,161.27292 C53.9328523,161.27292 53.9712143,161.135942 54.0278719,160.762312 L55.828523,149 L53.8761946,149.372407 Z M57.7826219,161.214215 C57.8392796,161.705254 58.0287286,161.980432 59.4693676,161.980432 C64.7385295,161.980432 65.5913452,154.065713 65.5913452,152.710617 C65.5913452,151.198975 65.1174276,149 62.5395042,149 C59.9049233,149 58.7682291,151.650877 58.7682291,153.634602 C58.7682291,155.793828 59.9243993,157.188673 61.611145,157.188673 C62.4828466,157.188673 62.9567643,156.717814 63.2790047,156.422456 C62.6911815,158.779199 61.4783536,160.625335 59.3554621,160.625335 C58.9954499,160.625335 58.3698549,160.585587 57.6498306,160.251705 L57.7826219,161.214215 Z M62.5967521,150.354485 C63.5823592,150.354485 64.0751628,151.335952 64.0751628,152.593819 C64.0751628,154.007009 63.4495678,155.950985 61.9144995,155.950985 C61.2889045,155.950985 60.3410692,155.519874 60.3410692,153.791759 C60.3410692,152.848817 60.7772151,150.354485 62.5967521,150.354485 Z M67.9939839,150.78682 C68.4684918,150.531822 68.6390549,150.511642 69.6429578,150.511642 L72.7325705,150.511642 C71.652534,152.063032 70.2880288,154.223482 69.7568633,155.204948 C68.1840232,158.111435 68.01346,160.330589 68.01346,160.723176 C68.01346,161.371372 68.2595667,161.449645 68.7328942,161.606802 L69.8707688,162 C69.832997,161.509572 69.8135209,161.253963 69.8135209,160.919469 C69.8135209,157.855826 71.25475,155.263653 75.0643872,149.156545 L69.017953,149.156545 C68.6390549,149.156545 68.5062636,149.195682 68.3923581,149.549132 L67.9939839,150.78682 Z M81.8816015,149.058093 C81.578247,149 81.4838175,149 81.4265697,149 C80.9337661,149 79.6831664,149.667153 78.9619617,150.216896 C76.4418764,152.161485 75.1529147,155.244696 75.1529147,157.522555 C75.1529147,159.113693 75.7401477,161.449645 78.298595,161.449645 C80.991014,161.449645 82.1843658,158.837904 82.1843658,156.717814 C82.1843658,154.223482 80.763203,153.319676 79.4364696,153.319676 C78.7731028,153.319676 78.3180711,153.555106 77.9014012,153.752011 C79.5881468,151.159227 80.763203,150.295169 83,149.294134 L81.8816015,149.058093 Z M78.9247801,154.537184 C80.2515135,154.537184 80.5548681,155.695988 80.5548681,156.775907 C80.5548681,158.229456 79.7775959,160.09516 78.356433,160.09516 C77.5225031,160.09516 76.726345,159.427395 76.726345,157.777553 C76.726345,156.049438 77.483551,154.537184 78.9247801,154.537184 Z" id="Fill-15" fill="#FFFFFE"></path>
        </g>
    </g>
</svg>